# xmcd CD database file
#
# Track frame offsets:
#	150
#	31393
#	52408
#	72948
#	96527
#	117072
#	148335
#	167807
#	189466
#	215369
#
# Disc length: 3275 seconds
#
# Revision: 0
# Processed by: cddbd v1.5.2PL0 Copyright (c) Steve Scherf et al.
# Submitted via: CDex 1.51
#
DISCID=9d0cc90a
DTITLE=Just Released - The Grease
DYEAR=2007
DGENRE=Jazz
TTITLE0=Say What Now
TTITLE1=Flex Time
TTITLE2=The Grease
TTITLE3=Take Too
TTITLE4=From Here On Out
TTITLE5=Song for EM
TTITLE6=I'm  Back
TTITLE7=Dig This
TTITLE8=Neo-Jazz
TTITLE9=Amber's Waves
EXTD=YEAR: 2007
EXTT0=
EXTT1=
EXTT2=
EXTT3=
EXTT4=
EXTT5=
EXTT6=
EXTT7=
EXTT8=
EXTT9=
PLAYORDER=
